<?xml version="1.0" encoding="iso-8859-1"?>
<!-- Uploaded to: SVG Repo, www.svgrepo.com, Generator: SVG Repo Mixer Tools -->
<!DOCTYPE svg PUBLIC "-//W3C//DTD SVG 1.1//EN" "http://www.w3.org/Graphics/SVG/1.1/DTD/svg11.dtd">
<svg fill="#000000" version="1.1" id="Capa_1" xmlns="http://www.w3.org/2000/svg" xmlns:xlink="http://www.w3.org/1999/xlink" 
	 width="800px" height="800px" viewBox="0 0 55.417 55.417"
	 xml:space="preserve">
<g>
	<path d="M39.708,0h-24c-6.341,0-11.5,5.159-11.5,11.5v32.417c0,6.341,5.159,11.5,11.5,11.5h24c6.341,0,11.5-5.159,11.5-11.5V11.5
		C51.208,5.159,46.049,0,39.708,0z M48.208,43.917c0,4.687-3.812,8.5-8.5,8.5h-9.557c0.213-0.142,0.424-0.289,0.623-0.466
		c1-0.889,1.5-2.112,1.5-3.667c0-1.4-0.478-2.578-1.434-3.534c-0.955-0.956-2.133-1.434-3.533-1.434c-1.423,0-2.622,0.478-3.6,1.434
		c-0.979,0.956-1.468,2.134-1.468,3.534c0,1.577,0.506,2.806,1.518,3.684c0.197,0.171,0.406,0.312,0.617,0.45h-8.667
		c-4.687,0-8.5-3.812-8.5-8.5V11.5c0-4.687,3.813-8.5,8.5-8.5h9.484c-2.278,0.293-4.343,0.937-6.185,1.945
		c-2.601,1.423-4.578,3.217-5.934,5.384s-2.033,4.307-2.033,6.418c0,1.023,0.427,1.972,1.282,2.85
		c0.856,0.878,1.906,1.317,3.15,1.317c2.112,0,3.545-1.256,4.301-3.767c0.8-2.4,1.778-4.217,2.934-5.451
		c1.156-1.233,2.957-1.851,5.401-1.851c2.088,0,3.793,0.612,5.118,1.834c1.321,1.222,1.982,2.723,1.982,4.5
		c0,0.911-0.217,1.756-0.65,2.534c-0.433,0.778-0.967,1.484-1.6,2.117c-0.635,0.633-1.661,1.572-3.084,2.817
		c-1.622,1.422-2.911,2.65-3.867,3.684c-0.955,1.034-1.723,2.233-2.3,3.601c-0.579,1.366-0.867,2.982-0.867,4.851
		c0,1.489,0.395,2.61,1.183,3.366c0.789,0.756,1.762,1.134,2.918,1.134c2.223,0,3.544-1.156,3.966-3.468
		c0.246-1.088,0.429-1.85,0.551-2.283s0.295-0.867,0.518-1.301c0.223-0.433,0.562-0.91,1.018-1.433
		c0.455-0.522,1.062-1.128,1.816-1.817c2.733-2.444,4.629-4.184,5.685-5.216c1.055-1.033,1.967-2.261,2.733-3.684
		s1.148-3.079,1.148-4.968c0-2.4-0.672-4.623-2.018-6.668c-1.344-2.044-3.25-3.661-5.717-4.85c-1.707-0.823-3.609-1.342-5.682-1.595
		h8.747c4.687,0,8.5,3.813,8.5,8.5L48.208,43.917L48.208,43.917z"/>
</g>
</svg>