<?xml version="1.0" standalone="no"?>
<!DOCTYPE svg PUBLIC "-//W3C//DTD SVG 20010904//EN"
 "http://www.w3.org/TR/2001/REC-SVG-20010904/DTD/svg10.dtd">
<svg version="1.0" xmlns="http://www.w3.org/2000/svg"
 width="252.000000pt" height="252.000000pt" viewBox="0 0 252.000000 252.000000"
 preserveAspectRatio="xMidYMid meet">
<metadata>
Created by potrace 1.16, written by Peter Selinger 2001-2019
</metadata>
<g transform="translate(0.000000,252.000000) scale(0.100000,-0.100000)"
fill="#000000" stroke="none">
<path d="M1170 2246 c0 -159 -1 -156 76 -156 62 0 64 1 64 25 0 22 -4 25 -34
25 -28 0 -35 -4 -39 -22 -2 -13 -5 27 -6 87 l-1 110 37 0 c31 0 39 4 41 22 3
21 0 22 -67 21 l-71 0 0 -112z"/>
<path d="M1466 2323 c-5 -11 0 -23 15 -34 25 -19 19 -59 -11 -59 -27 0 -34
-30 -11 -46 17 -12 19 -22 14 -69 -6 -54 -5 -55 19 -55 22 0 27 6 35 49 5 26
6 57 2 69 -5 13 -3 25 6 32 19 16 28 65 16 88 -6 11 -25 25 -42 31 -40 14 -36
14 -43 -6z"/>
<path d="M1650 2267 c-50 -128 -80 -211 -80 -222 0 -11 39 -29 47 -22 9 10 92
240 88 247 -2 4 -14 10 -25 13 -15 4 -23 -1 -30 -16z"/>
<path d="M1778 2193 c-20 -24 -98 -155 -98 -165 0 -16 30 -68 39 -68 10 0 21
25 21 48 0 25 79 152 95 152 8 0 19 9 24 19 8 15 7 20 -5 25 -29 11 -61 6 -76
-11z"/>
<path d="M565 2120 c-9 -17 -13 -40 -10 -51 8 -26 55 -49 102 -50 64 -2 88
-12 85 -39 -1 -12 3 -29 9 -37 18 -21 49 12 49 52 0 49 -28 68 -113 74 -63 5
-72 9 -73 26 -1 27 -14 55 -25 55 -5 0 -16 -14 -24 -30z"/>
<path d="M1101 2039 c-178 -35 -335 -122 -461 -256 -84 -88 -135 -166 -176
-267 -174 -431 13 -914 431 -1111 103 -49 194 -74 292 -80 l68 -4 -85 14
c-118 19 -165 32 -245 67 -205 89 -382 274 -459 479 -79 210 -72 449 19 654
55 126 171 266 290 351 68 48 178 99 272 126 112 32 324 32 436 0 286 -82 500
-282 593 -554 49 -145 57 -339 19 -488 -34 -134 -157 -340 -246 -415 -150
-125 -287 -188 -479 -219 l-95 -16 75 5 c331 21 638 269 745 605 39 122 46
317 16 443 -43 179 -110 298 -240 427 -126 125 -266 200 -433 235 -75 16 -265
18 -337 4z"/>
<path d="M1937 1982 c-54 -54 -67 -74 -67 -99 0 -37 26 -65 41 -42 5 8 9 21 9
29 0 20 111 130 131 130 8 0 20 5 27 12 9 9 12 9 12 1 0 -7 -4 -15 -10 -18 -5
-3 -10 -14 -10 -23 0 -25 -101 -122 -127 -122 -28 0 -39 -31 -17 -47 33 -24
57 -13 131 60 84 84 89 103 39 153 -53 53 -78 47 -159 -34z"/>
<path d="M430 2003 c-8 -3 -21 -10 -28 -16 -17 -13 3 -37 32 -37 28 0 136
-104 136 -130 0 -11 5 -20 12 -20 6 0 9 -3 5 -6 -3 -3 -12 -2 -19 2 -7 4 -20
9 -29 9 -20 2 -129 103 -129 120 0 7 -7 18 -16 26 -19 16 -34 -2 -34 -42 0
-38 129 -159 169 -159 36 0 91 58 91 97 0 27 -72 104 -135 144 -32 20 -32 20
-55 12z"/>
<path d="M1115 1996 c-485 -94 -781 -587 -634 -1055 46 -145 145 -294 259
-388 117 -98 304 -173 458 -186 48 -4 52 -2 52 18 0 20 -8 23 -86 34 -369 52
-647 349 -671 716 -27 424 289 785 719 821 221 19 465 -77 619 -244 225 -243
272 -588 121 -886 -38 -74 -63 -108 -137 -181 -49 -49 -116 -105 -148 -124
-81 -47 -200 -88 -302 -103 -79 -11 -85 -14 -85 -35 0 -22 2 -23 58 -17 199
20 373 103 512 243 252 254 310 631 145 950 -109 210 -297 363 -521 422 -101
26 -265 33 -359 15z"/>
<path d="M2174 1840 c-26 -10 -33 -27 -48 -110 -10 -61 -13 -65 -38 -65 -42 0
-54 -19 -29 -44 27 -27 54 -27 85 2 21 18 27 35 34 92 7 68 8 70 37 73 45 5
54 20 26 43 -25 21 -35 22 -67 9z"/>
<path d="M1126 1807 c-10 -8 -29 -12 -42 -9 -17 3 -26 -1 -30 -14 -4 -11 -16
-27 -26 -38 -11 -10 -17 -24 -14 -31 2 -7 -2 -16 -11 -19 -12 -5 -13 -9 -4
-20 9 -10 8 -15 -4 -20 -17 -6 -21 -36 -5 -36 6 0 10 5 10 10 0 6 7 10 15 10
8 0 15 -5 15 -11 0 -7 12 -9 31 -7 42 6 61 -21 47 -68 -9 -34 -5 -54 12 -54 5
0 7 14 4 30 -4 17 -2 30 3 30 15 0 32 -41 32 -77 0 -29 -3 -33 -28 -33 -30 0
-61 -27 -61 -53 0 -11 -16 -19 -54 -27 -58 -12 -126 -51 -152 -88 -14 -20 -13
-23 7 -39 26 -22 44 -64 30 -72 -5 -4 -12 -17 -16 -31 -8 -31 24 -68 66 -77
19 -4 29 -12 29 -24 0 -10 5 -21 10 -24 6 -3 10 -12 10 -20 0 -14 -66 -98 -81
-103 -5 -2 -16 13 -24 32 -9 21 -26 41 -40 46 -13 5 -29 18 -35 30 -15 27 -56
26 -74 -2 -8 -14 -16 -66 -20 -129 -6 -96 -5 -108 13 -131 29 -36 63 -46 173
-51 116 -5 141 6 136 56 -2 24 -11 35 -32 46 -26 12 -34 11 -75 -9 l-45 -22
-18 22 c-30 37 -24 53 17 46 29 -6 36 -3 50 18 16 24 69 59 150 100 33 16 60
20 150 19 62 0 128 -6 150 -13 75 -24 118 -70 66 -70 -10 0 -23 -11 -29 -25
-13 -27 -23 -30 -52 -15 -27 14 -48 3 -55 -31 -4 -17 -21 -41 -41 -55 -19 -15
-34 -33 -34 -42 0 -8 -7 -24 -16 -34 -14 -14 -14 -20 -4 -33 9 -11 34 -15 97
-15 59 0 89 -4 98 -14 16 -16 165 -12 222 6 39 11 83 61 83 92 0 55 -54 60
-127 12 l-52 -34 -38 19 c-20 10 -46 19 -58 19 -18 1 -19 1 -2 11 9 5 17 17
17 26 0 8 11 24 25 35 14 11 25 26 25 33 0 8 11 22 25 31 33 21 32 39 -5 76
-17 17 -39 47 -49 67 -11 20 -29 45 -41 56 -27 25 -54 75 -44 83 4 4 9 1 11
-5 3 -7 18 -13 34 -13 44 0 71 -17 64 -40 -8 -25 13 -35 34 -16 26 23 61 21
61 -4 0 -11 4 -20 9 -20 15 0 29 24 41 73 11 40 10 51 -3 71 -9 13 -28 26 -44
29 -31 6 -91 28 -111 40 -9 6 -9 13 -2 28 16 29 7 36 -59 43 -33 4 -65 13 -71
21 -7 8 -18 15 -26 15 -19 0 -87 62 -77 70 4 4 54 3 109 -1 118 -8 167 -27
237 -89 26 -23 51 -39 55 -35 4 3 9 49 10 102 5 109 -10 162 -57 207 -39 37
-102 45 -169 21 -33 -12 -61 -16 -85 -11 -39 7 -70 31 -64 50 8 23 102 48 202
53 110 6 143 16 125 38 -34 41 -217 44 -325 6 -33 -12 -68 -24 -78 -28 -13 -4
-21 4 -32 31 -16 39 -38 46 -69 23z"/>
</g>
</svg>
